<mxfile host="app.diagrams.net" modified="2024-06-02T23:26:11.477Z" agent="Mozilla/5.0 (Windows NT 10.0; Win64; x64) AppleWebKit/537.36 (KHTML, like Gecko) Chrome/125.0.0.0 Safari/537.36" etag="HXX2qmcXvrq6T8WE0SQq" version="24.4.13" type="github">
  <diagram name="PÃ¡gina-1" id="HXB0JEMqDRqXI1WhQdac">
    <mxGraphModel dx="1434" dy="780" grid="1" gridSize="10" guides="1" tooltips="1" connect="1" arrows="1" fold="1" page="1" pageScale="1" pageWidth="827" pageHeight="1169" math="0" shadow="0">
      <root>
        <mxCell id="0" />
        <mxCell id="1" parent="0" />
        <mxCell id="1gAPxLL0d0GN6IRo9fv0-1" value="" style="shape=actor;whiteSpace=wrap;html=1;" vertex="1" parent="1">
          <mxGeometry x="40" y="80" width="40" height="60" as="geometry" />
        </mxCell>
        <mxCell id="1gAPxLL0d0GN6IRo9fv0-4" value="Cliente" style="text;html=1;align=center;verticalAlign=middle;resizable=0;points=[];autosize=1;strokeColor=none;fillColor=none;" vertex="1" parent="1">
          <mxGeometry x="30" y="138" width="60" height="30" as="geometry" />
        </mxCell>
        <mxCell id="1gAPxLL0d0GN6IRo9fv0-5" value="" style="endArrow=none;dashed=1;html=1;dashPattern=1 3;strokeWidth=2;rounded=0;" edge="1" parent="1" target="1gAPxLL0d0GN6IRo9fv0-4">
          <mxGeometry width="50" height="50" relative="1" as="geometry">
            <mxPoint x="60" y="250" as="sourcePoint" />
            <mxPoint x="440" y="380" as="targetPoint" />
          </mxGeometry>
        </mxCell>
        <mxCell id="1gAPxLL0d0GN6IRo9fv0-6" value="" style="verticalLabelPosition=bottom;verticalAlign=top;html=1;shape=mxgraph.basic.rect;fillColor2=none;strokeWidth=1;size=20;indent=5;" vertex="1" parent="1">
          <mxGeometry x="50" y="240" width="20" height="240" as="geometry" />
        </mxCell>
        <mxCell id="1gAPxLL0d0GN6IRo9fv0-8" value="" style="verticalLabelPosition=bottom;verticalAlign=top;html=1;shape=mxgraph.basic.rect;fillColor2=none;strokeWidth=1;size=20;indent=5;" vertex="1" parent="1">
          <mxGeometry x="200" y="240" width="20" height="240" as="geometry" />
        </mxCell>
        <mxCell id="1gAPxLL0d0GN6IRo9fv0-9" value="Llegar a la biblioteca" style="endArrow=block;endFill=1;html=1;edgeStyle=orthogonalEdgeStyle;align=left;verticalAlign=top;rounded=0;exitX=1;exitY=0.105;exitDx=0;exitDy=0;exitPerimeter=0;" edge="1" parent="1" source="1gAPxLL0d0GN6IRo9fv0-6">
          <mxGeometry x="-0.8521" y="22" relative="1" as="geometry">
            <mxPoint x="80" y="260" as="sourcePoint" />
            <mxPoint x="203" y="263" as="targetPoint" />
            <Array as="points">
              <mxPoint x="70" y="262" />
              <mxPoint x="170" y="262" />
              <mxPoint x="170" y="263" />
            </Array>
            <mxPoint as="offset" />
          </mxGeometry>
        </mxCell>
        <mxCell id="1gAPxLL0d0GN6IRo9fv0-13" value="Buscar libro" style="endArrow=block;endFill=1;html=1;edgeStyle=orthogonalEdgeStyle;align=left;verticalAlign=top;rounded=0;entryX=0.15;entryY=0.133;entryDx=0;entryDy=0;entryPerimeter=0;" edge="1" parent="1" target="1gAPxLL0d0GN6IRo9fv0-17">
          <mxGeometry x="-0.5556" y="20" relative="1" as="geometry">
            <mxPoint x="220" y="270" as="sourcePoint" />
            <mxPoint x="310" y="270" as="targetPoint" />
            <Array as="points" />
            <mxPoint as="offset" />
          </mxGeometry>
        </mxCell>
        <mxCell id="1gAPxLL0d0GN6IRo9fv0-17" value="" style="html=1;whiteSpace=wrap;" vertex="1" parent="1">
          <mxGeometry x="380" y="240" width="20" height="240" as="geometry" />
        </mxCell>
        <mxCell id="1gAPxLL0d0GN6IRo9fv0-18" value="Estado del Libro" style="html=1;verticalAlign=bottom;endArrow=open;dashed=1;endSize=8;curved=0;rounded=0;exitX=-0.1;exitY=0.374;exitDx=0;exitDy=0;exitPerimeter=0;entryX=0.9;entryY=0.375;entryDx=0;entryDy=0;entryPerimeter=0;" edge="1" parent="1" source="1gAPxLL0d0GN6IRo9fv0-17" target="1gAPxLL0d0GN6IRo9fv0-8">
          <mxGeometry relative="1" as="geometry">
            <mxPoint x="300" y="310" as="sourcePoint" />
            <mxPoint x="220" y="310" as="targetPoint" />
          </mxGeometry>
        </mxCell>
        <mxCell id="1gAPxLL0d0GN6IRo9fv0-21" value="Pedido de prestamo" style="endArrow=block;endFill=1;html=1;edgeStyle=orthogonalEdgeStyle;align=left;verticalAlign=top;rounded=0;entryX=-0.1;entryY=0.637;entryDx=0;entryDy=0;entryPerimeter=0;exitX=1.1;exitY=0.638;exitDx=0;exitDy=0;exitPerimeter=0;" edge="1" parent="1" source="1gAPxLL0d0GN6IRo9fv0-8" target="1gAPxLL0d0GN6IRo9fv0-17">
          <mxGeometry x="-0.8341" y="20" relative="1" as="geometry">
            <mxPoint x="220" y="360" as="sourcePoint" />
            <mxPoint x="310" y="360" as="targetPoint" />
            <mxPoint as="offset" />
          </mxGeometry>
        </mxCell>
        <mxCell id="1gAPxLL0d0GN6IRo9fv0-25" value="Cambio de Estado del Libro" style="html=1;verticalAlign=bottom;endArrow=open;dashed=1;endSize=8;curved=0;rounded=0;exitX=-0.15;exitY=0.905;exitDx=0;exitDy=0;exitPerimeter=0;entryX=1.15;entryY=0.904;entryDx=0;entryDy=0;entryPerimeter=0;" edge="1" parent="1" source="1gAPxLL0d0GN6IRo9fv0-17" target="1gAPxLL0d0GN6IRo9fv0-8">
          <mxGeometry x="-0.019" y="-1" relative="1" as="geometry">
            <mxPoint x="358" y="411" as="sourcePoint" />
            <mxPoint x="220" y="410" as="targetPoint" />
            <mxPoint as="offset" />
          </mxGeometry>
        </mxCell>
        <mxCell id="1gAPxLL0d0GN6IRo9fv0-27" value="Retiro del Libro Prestado" style="html=1;verticalAlign=bottom;endArrow=open;dashed=1;endSize=8;curved=0;rounded=0;exitX=-0.15;exitY=0.996;exitDx=0;exitDy=0;exitPerimeter=0;" edge="1" parent="1" source="1gAPxLL0d0GN6IRo9fv0-8">
          <mxGeometry relative="1" as="geometry">
            <mxPoint x="150" y="479" as="sourcePoint" />
            <mxPoint x="70" y="479" as="targetPoint" />
          </mxGeometry>
        </mxCell>
        <mxCell id="1gAPxLL0d0GN6IRo9fv0-28" value="Libro" style="html=1;whiteSpace=wrap;" vertex="1" parent="1">
          <mxGeometry x="335" y="110" width="110" height="50" as="geometry" />
        </mxCell>
        <mxCell id="1gAPxLL0d0GN6IRo9fv0-29" value="Biblioteca" style="html=1;whiteSpace=wrap;" vertex="1" parent="1">
          <mxGeometry x="155" y="110" width="110" height="50" as="geometry" />
        </mxCell>
        <mxCell id="1gAPxLL0d0GN6IRo9fv0-30" value="" style="endArrow=none;dashed=1;html=1;dashPattern=1 3;strokeWidth=2;rounded=0;entryX=0.5;entryY=1;entryDx=0;entryDy=0;" edge="1" parent="1" target="1gAPxLL0d0GN6IRo9fv0-29">
          <mxGeometry width="50" height="50" relative="1" as="geometry">
            <mxPoint x="209.5" y="240" as="sourcePoint" />
            <mxPoint x="210" y="170" as="targetPoint" />
          </mxGeometry>
        </mxCell>
        <mxCell id="1gAPxLL0d0GN6IRo9fv0-31" value="" style="endArrow=none;dashed=1;html=1;dashPattern=1 3;strokeWidth=2;rounded=0;entryX=0.5;entryY=1;entryDx=0;entryDy=0;" edge="1" parent="1" target="1gAPxLL0d0GN6IRo9fv0-28">
          <mxGeometry width="50" height="50" relative="1" as="geometry">
            <mxPoint x="389.5" y="240" as="sourcePoint" />
            <mxPoint x="390" y="170" as="targetPoint" />
          </mxGeometry>
        </mxCell>
      </root>
    </mxGraphModel>
  </diagram>
</mxfile>
